<?xml version="1.0" encoding="utf-8"?>
<!-- Generator: Adobe Illustrator 19.0.0, SVG Export Plug-In . SVG Version: 6.00 Build 0)  -->
<svg version="1.1" id="Layer_1" xmlns="http://www.w3.org/2000/svg" xmlns:xlink="http://www.w3.org/1999/xlink" x="0px" y="0px"
	 viewBox="-180 376.7 136 48" style="enable-background:new -180 376.7 136 48;" xml:space="preserve">
<style type="text/css">
	.st0{fill:#fff;}
</style>
<g>
	<path class="st0" d="M-162,419c-1.6,0-3.1-0.2-4.5-0.6c-1.4-0.4-2.7-1-3.8-1.9c-1.1-0.8-2-1.9-2.6-3.2c-0.6-1.3-1-2.9-1-4.7
		c0-2.1,0.3-4.1,0.9-5.9c0.6-1.8,1.3-3.4,2.1-4.8c0.8-1.4,1.5-2.5,2.2-3.3c0.7-0.8,1.1-1.3,1.4-1.6c0.7-0.7,1.6-1.6,2.6-2.5
		c1-1,2.3-1.9,3.7-2.7c1.4-0.9,3-1.6,4.8-2.2c1.8-0.6,3.8-0.9,5.9-0.9c0.5,0,1.1,0.1,1.8,0.2c0.7,0.1,1.3,0.4,2,0.8
		c0.6,0.4,1.1,1,1.6,1.8c0.4,0.8,0.6,1.9,0.6,3.3c0,0.4-0.2,1.2-0.5,2.4c-0.3,1.2-0.9,2.4-1.7,3.6c-0.8,1.2-1.8,2.3-3.1,3.3
		c-1.3,1-2.9,1.4-4.9,1.4c-0.8,0-1.6-0.1-2.3-0.4c-0.7-0.3-1.4-0.6-2-0.9c-0.6-0.4-1-0.7-1.3-1s-0.5-0.6-0.5-0.7
		c0-0.1,0.1-0.1,0.2-0.2c0.1,0,0.2,0,0.3,0c2.1,0,3.9-0.4,5.5-1.2c1.6-0.8,2.9-1.8,4-2.9c1.1-1.1,1.9-2.2,2.4-3.3
		c0.5-1.1,0.8-1.9,0.8-2.3c0-0.6-0.1-0.9-0.4-1.1c-0.2-0.2-0.5-0.3-0.8-0.4c-0.1,0-0.3,0.1-0.4,0.1c-0.1,0-0.2,0-0.3,0.1
		c-0.1,0-0.2,0.1-0.3,0.1c-2.1,0.7-4.3,1.8-6.6,3.4c-2.3,1.6-4.4,3.4-6.3,5.4c-1.9,2.1-3.5,4.3-4.8,6.7c-1.2,2.4-1.9,4.9-1.9,7.4
		c0,0.8,0.1,1.6,0.4,2.4c0.2,0.8,0.7,1.4,1.3,2.1c0.6,0.6,1.5,1.1,2.6,1.5c1.1,0.4,2.4,0.6,4.1,0.6c1.6,0,3-0.2,4.2-0.7
		c1.3-0.5,2.4-1.1,3.3-1.8s1.7-1.5,2.3-2.4c0.6-0.9,1-1.8,1.3-2.6c0.1-0.2,0.2-0.4,0.4-0.7c0.2-0.3,0.5-0.5,0.8-0.5
		c0.4,0,0.7,0.1,0.8,0.4c0.1,0.3,0.2,0.7,0.2,1.2c-0.4,1-0.8,1.9-1.2,2.6s-1,1.5-1.7,2.3c-0.7,0.8-1.6,1.6-2.7,2.3
		c-1.1,0.7-2.4,1.3-3.8,1.8C-158.4,418.8-160.1,419-162,419z"/>
	<path class="st0" d="M-132.6,406.8c-0.3,0.5-0.9,1-1.6,1.5c-0.7,0.5-1.7,1-2.9,1.4c-0.5,0.9-1,1.8-1.6,2.6
		c-0.6,0.8-1.2,1.6-1.9,2.2c-0.6,0.7-1.3,1.2-2,1.6c-0.7,0.4-1.4,0.6-2.1,0.6c-0.1,0-0.3,0-0.4,0s-0.2-0.1-0.4-0.1
		c0.1,0-0.1-0.1-0.6-0.2c-0.5-0.1-1.1-0.4-1.7-0.7c-0.6-0.4-1.2-0.9-1.8-1.6c-0.6-0.7-0.8-1.6-0.8-2.6c0-1.2,0.2-2.5,0.7-3.9
		c0.5-1.4,1-2.5,1.4-3.4c0.7-1.3,1.5-2.6,2.3-3.6c0.7-0.9,1.5-1.7,2.3-2.5c0.8-0.8,1.6-1.1,2.5-1.1c0.1,0,0.2,0,0.2,0
		c0.1,0,0.1,0,0.2,0c0.7,0.2,1.4,0.3,1.9,0.4c0.5,0.1,0.9,0.2,1.2,0.3c0.3,0.1,0.6,0.2,0.8,0.3c0,0,0.2,0.1,0.4,0.2
		c0.2,0.1,0.5,0.3,0.8,0.6c0.3,0.3,0.6,0.7,0.8,1.1c0.2,0.5,0.4,1,0.4,1.7c0,1.2-0.5,2.9-1.5,5.3c0.3-0.1,0.6-0.3,1-0.6
		c0.3-0.2,0.7-0.5,1-0.6c0.3-0.2,0.6-0.4,0.8-0.5c0.2-0.2,0.4-0.2,0.6-0.2c0.2,0,0.3,0.2,0.3,0.6
		C-132.1,405.9-132.3,406.3-132.6,406.8z M-144.9,414.2c0.2,0.2,0.4,0.3,0.6,0.3c0.6,0,1.3-0.4,2.1-1.3c0.8-0.9,1.6-1.9,2.4-3.1
		c-0.7,0-1.5-0.2-2.2-0.6c-0.8-0.3-1.3-0.9-1.7-1.7c-0.3,0.6-0.6,1.2-0.8,1.8c-0.2,0.5-0.4,1-0.6,1.6c-0.2,0.6-0.3,1.1-0.3,1.6
		C-145.4,413.4-145.2,413.9-144.9,414.2z M-137.8,406.6c0.5-1,0.8-2,1.1-2.9c0.2-0.9,0.4-1.6,0.4-2.2c0-1.2-0.3-1.8-0.9-1.8
		c-0.5,0-1,0.3-1.5,0.8c-0.5,0.5-1,1.1-1.5,1.8c-0.5,0.7-0.8,1.3-1.1,1.9c-0.3,0.6-0.5,1-0.5,1.2c0,0.4,0.2,0.9,0.7,1.5
		c0.5,0.6,1.2,0.9,2.1,0.9c0.5,0,0.8-0.1,0.9-0.4C-138.1,407.2-137.9,406.9-137.8,406.6z"/>
	<path class="st0" d="M-115.4,410.3c0.2-0.6,0.5-0.9,0.8-0.9c0.4,0,0.7,0.3,0.7,1c0,0.7-0.2,1.4-0.6,2.1c-0.4,0.7-0.9,1.4-1.5,1.9
		c-0.6,0.6-1.3,1-2,1.4c-0.7,0.3-1.5,0.5-2.1,0.5c-1.1,0-2-0.1-2.6-0.3c-0.7-0.2-1.2-0.4-1.6-0.7s-0.7-0.7-0.8-1.1
		c-0.2-0.4-0.2-0.9-0.2-1.4c0-0.5,0.1-0.9,0.2-1.4c0.1-0.4,0.2-0.8,0.3-1c0.1-0.4,0.3-1,0.7-1.8c0.3-0.7,0.7-1.5,1.2-2.6
		c0.5-1.1,1.2-2.5,2.1-4.2c0,0,0.1-0.1,0.1-0.2c0.1-0.2,0.1-0.3,0.1-0.4c0-0.1,0-0.1-0.1-0.1c-0.1,0-0.4,0.2-0.9,0.6s-1.2,1-1.9,1.7
		c-0.8,0.7-1.6,1.5-2.4,2.4c-0.8,0.9-1.6,1.9-2.4,2.9c-0.7,1-1.3,2-1.8,3c-0.5,1-0.7,2-0.7,2.9c0,0.3,0,0.6,0.1,0.8
		c0,0.2,0.1,0.4,0.1,0.6c0,0.1-0.1,0.2-0.2,0.3c-0.1,0-0.2,0.1-0.3,0.1c-1-0.1-1.7-0.3-2.3-0.7c-0.6-0.3-1-0.7-1.3-1
		c-0.3-0.4-0.5-0.8-0.7-1.3c-0.1-0.5-0.2-0.9-0.2-1.4c0-1.3,0.4-2.6,1.2-4c0.3-0.5,0.6-1.2,1.1-2.1c0.5-0.9,1-1.9,1.5-3
		c0.5-1,0.9-2.1,1.3-3.1c0.3-1,0.5-1.8,0.5-2.4c0-0.3-0.1-0.5-0.2-0.8c-0.1-0.3-0.2-0.5-0.2-0.6c0-0.1,0.1-0.2,0.2-0.2
		c0.1,0,0.4,0,0.9,0.1c0.5,0.1,1.1,0.3,1.8,0.6c0.6,0.3,1.2,0.7,1.7,1.3s0.8,1.4,0.8,2.3c0,0-0.1,0.4-0.4,1.2
		c-0.2,0.8-0.6,1.7-1.2,2.8c0.7-0.7,1.3-1.4,2.1-2.2c0.7-0.8,1.5-1.5,2.2-2.1c0.7-0.7,1.5-1.2,2.2-1.6s1.4-0.6,1.9-0.6
		c0.2,0,0.5,0.1,0.8,0.3c0.4,0.2,0.8,0.5,1.2,0.8c0.4,0.3,0.8,0.8,1.1,1.2c0.3,0.5,0.5,1,0.5,1.6c0,0.3-0.1,0.8-0.4,1.5
		c-0.3,0.6-0.6,1.4-1.1,2.2c-0.4,0.8-0.9,1.7-1.4,2.6c-0.5,0.9-1,1.9-1.5,2.8c0,0-0.1,0-0.1,0.1s0,0.1-0.1,0.2
		c-0.3,0.4-0.5,0.9-0.7,1.4c-0.2,0.5-0.3,0.9-0.3,1.3c0,0.4,0.2,0.7,0.7,0.7c0.6,0,1.1-0.1,1.5-0.4c0.4-0.3,0.8-0.6,1.2-0.9
		c0.3-0.4,0.7-0.8,0.9-1.2C-115.7,411.1-115.5,410.7-115.4,410.3z"/>
	<path class="st0" d="M-84.4,395.3c-0.6-0.2-1.5-0.4-2.8-0.5c-1.3-0.1-2.7-0.2-4.4-0.3c-1.7-0.1-3.5-0.1-5.4-0.1c-1.9,0-3.8,0-5.7,0
		c-0.5,1.3-1.1,2.6-1.8,4.1c-0.7,1.5-1.5,3-2.3,4.6c-0.8,1.6-1.6,3.1-2.3,4.7c-0.7,1.5-1.3,3-1.8,4.3c0,0.1-0.1,0.3-0.2,0.5
		c-0.1,0.2-0.1,0.5-0.2,0.7c0,0.2,0,0.4,0,0.6c0,0.2,0.2,0.3,0.4,0.3c0.8,0,1.5-0.2,2-0.7c0.5-0.4,0.9-0.9,1.2-1.5
		c0.3-0.5,0.6-1.1,0.7-1.6c0.2-0.5,0.4-0.8,0.6-1c0.2-0.1,0.3-0.1,0.5,0.2c0.2,0.2,0.2,0.5,0.2,0.8c0,0.7-0.2,1.5-0.7,2.2
		s-1,1.3-1.6,1.9c-0.7,0.5-1.4,1-2.2,1.3c-0.8,0.3-1.6,0.5-2.4,0.5c-2.7,0-4-1.5-4-4.6c0-0.9,0.3-2,0.7-3.2c0.5-1.2,1.1-2.6,1.9-4.1
		s1.5-3,2.4-4.7c0.8-1.6,1.6-3.3,2.3-4.9c1-0.1,2-0.2,3.1-0.4c1.1-0.1,1.8-0.2,2.2-0.2c-0.9,0-1.8,0-2.6,0.1c-0.8,0-1.6,0.1-2.3,0.1
		c-0.6,0-1.2,0-1.9-0.1c-0.6,0-1.2-0.1-1.7-0.3c-0.5-0.2-0.9-0.4-1.2-0.7c-0.3-0.3-0.4-0.8-0.2-1.3c0-0.2,0.1-0.4,0.3-0.6
		c0.2-0.2,0.4-0.4,0.6-0.6c0.2-0.2,0.5-0.4,0.7-0.6c0.2-0.2,0.4-0.3,0.6-0.5c1.2-1,2.1-1.8,2.7-2.5c0.6-0.7,1-1.4,1.3-1.9
		c0.3-0.5,0.4-0.9,0.4-1.1c0-0.3,0.1-0.4,0.2-0.4c0.3,0,0.7,0.1,1.3,0.4c0.6,0.3,1.2,0.7,1.8,1.2c0.6,0.5,1.1,1.2,1.6,2
		c0.5,0.8,0.7,1.8,0.7,2.9c1.9-0.3,3.8-0.6,5.9-0.8c2-0.3,4-0.4,5.8-0.4c0.3,0,0.6,0,0.9,0c0.3,0,0.6,0,0.8,0
		c0.8,0.1,1.6,0.3,2.2,0.7c0.6,0.3,1.1,0.7,1.6,1.3c0.5,0.5,0.7,1.3,0.7,2.2c0,0.1,0,0.3,0,0.5c0,0.2,0,0.5-0.1,0.7
		c0,0.2-0.1,0.4-0.1,0.6c-0.1,0.2-0.1,0.3-0.2,0.3C-84.3,395.3-84.3,395.3-84.4,395.3C-84.3,395.3-84.4,395.3-84.4,395.3z
		 M-108,391.6c0.2-0.6,0.4-1.2,0.6-1.7c0.2-0.5,0.3-1.1,0.4-1.6c-0.3,0.3-0.6,0.6-0.9,0.9c-0.4,0.3-0.7,0.7-1.1,1
		c-0.3,0.3-0.6,0.7-0.9,0.9c-0.2,0.3-0.4,0.5-0.4,0.6c0,0.1,0.1,0.2,0.4,0.2c0.1,0,0.2,0,0.5,0C-109.3,391.8-108.8,391.8-108,391.6z
		"/>
	<path class="st0" d="M-91.1,410.4c0.2-0.3,0.4-0.6,0.7-0.7c0.2-0.1,0.4-0.2,0.7-0.2c0.5,0,0.7,0.2,0.7,0.7c0,0.3-0.1,0.6-0.3,0.9
		c-0.5,0.7-1.1,1.5-1.7,2.1c-0.7,0.7-1.5,1.3-2.4,1.8c-0.9,0.5-2,0.9-3.2,1.2c-1.2,0.3-2.6,0.4-4.2,0.3c-1,0-2-0.2-2.8-0.6
		c-0.8-0.4-1.5-1-2-1.6c-0.5-0.7-0.9-1.5-1-2.4c-0.2-0.9-0.2-1.9,0.1-3c0-0.2,0.2-0.6,0.4-1.2c0.2-0.6,0.5-1.4,0.9-2.3
		c0.4-0.9,0.9-1.8,1.5-2.7c0.6-0.9,1.2-1.8,2-2.6c0.8-0.8,1.6-1.4,2.5-2c0.9-0.5,1.9-0.8,3.1-0.8c1.2,0,2.1,0.2,2.9,0.5
		c0.8,0.3,1.4,0.8,1.8,1.3c0.4,0.5,0.7,1.1,0.9,1.6c0.2,0.6,0.3,1,0.3,1.4c0,1.1-0.2,1.9-0.7,2.5c-0.4,0.6-0.9,1.1-1.5,1.4
		c-0.6,0.3-1.1,0.5-1.7,0.6c-0.6,0.1-1,0.1-1.3,0.1c-0.1,0-0.1,0-0.1-0.1s0.1-0.2,0.4-0.5c0.2-0.3,0.5-0.6,0.8-1
		c0.3-0.4,0.5-1,0.8-1.6c0.2-0.6,0.4-1.3,0.4-2.1c0-0.5-0.1-0.9-0.2-1.2c-0.2-0.3-0.4-0.5-0.7-0.5c-0.5,0-1.1,0.4-2,1.2
		c-0.8,0.8-1.8,2.2-3,4.1c-0.7,1.3-1.4,2.3-1.9,3.2c-0.5,0.9-0.7,1.9-0.7,2.9c0,0.3,0,0.7,0.1,1c0.1,0.3,0.3,0.6,0.6,0.9
		c0.3,0.3,0.7,0.5,1.2,0.7c0.5,0.2,1.3,0.3,2.2,0.3c1,0,2.1-0.3,3.4-0.9C-93.1,412.9-92,411.9-91.1,410.4z"/>
	<path class="st0" d="M-72.9,410.3c0.1-0.4,0.3-0.7,0.5-0.8c0.2-0.1,0.4-0.2,0.6-0.1c0.2,0.1,0.3,0.3,0.4,0.5c0.1,0.3,0.1,0.6-0.1,1
		c-0.4,1.4-1.1,2.6-2.1,3.6c-1,1-2.2,1.6-3.8,1.7h-1.4c-0.7,0-1.3-0.2-1.8-0.4c-0.5-0.2-0.9-0.4-1.1-0.7c-0.3-0.3-0.5-0.6-0.6-0.9
		c-0.1-0.3-0.2-0.7-0.2-1c0-0.8,0.2-1.7,0.7-2.7c-0.3,0.5-0.7,1-1,1.5c-0.3,0.5-0.7,1-1.1,1.5s-0.9,1.1-1.4,1.6
		c-1,1.1-2,1.4-2.9,0.9c-0.9-0.5-1.7-1.5-2.4-3.2c-0.4-0.9-0.5-1.9-0.3-3.2c0.2-1.2,0.7-2.5,1.3-3.8c0.7-1.3,1.4-2.5,2.4-3.7
		c0.9-1.2,1.9-2.2,2.9-3c1-0.8,2-1.3,2.9-1.6c0.9-0.3,1.8-0.3,2.5-0.2c0.8,0.1,1.5,0.3,2.1,0.7c0.6,0.3,1.1,0.7,1.4,1.1
		c0.5,0.6,0.6,1.2,0.5,1.9c-0.2,0.7-0.4,1.2-0.6,1.7c-0.1,0.2-0.2,0.2-0.3,0.1c0,0-0.1-0.1-0.1-0.1c0-0.3-0.1-0.5-0.2-0.7
		c-0.1-0.2-0.2-0.3-0.3-0.4c-0.2-0.1-0.3-0.2-0.5-0.3c-0.6-0.1-1.2-0.1-1.8,0.2c-0.6,0.3-1.1,0.6-1.6,0.9c-0.6,0.4-1.1,0.9-1.6,1.5
		c-0.3,0.3-0.8,0.9-1.3,1.8c-0.5,0.9-1,1.8-1.5,2.7c-0.5,0.9-0.8,1.7-1,2.4s-0.1,1.1,0.4,1c0.4,0,0.9-0.4,1.6-1.1
		c0.7-0.7,1.4-1.5,2.1-2.4c0.7-0.9,1.4-1.8,2.1-2.7c0.7-0.9,1.1-1.6,1.4-2c0.2-0.2,0.3-0.3,0.4-0.3h0.2l0.1,0.1
		c1.6,0.5,2.5,1.4,2.6,2.7c0.1,1.3-0.4,2.9-1.5,4.8c-0.1,0.2-0.3,0.5-0.4,0.7c-0.2,0.3-0.3,0.5-0.4,0.7c-0.1,0.3-0.2,0.5-0.3,0.8
		c-0.1,0.3,0,0.5,0.3,0.6c0.3,0.1,0.8,0,1.4-0.3c0.6-0.3,1-0.6,1.3-0.9c0.3-0.3,0.7-0.8,0.9-1.2C-73.2,411.2-73,410.8-72.9,410.3z"
		/>
	<path class="st0" d="M-62.2,383.9c0.7,0.3,1.4,0.7,2,1.3c0.6,0.6,1.2,1.3,1.6,2.3s0.5,2.1,0.2,3.4c-0.3,1.6-0.9,3.3-1.8,5.2
		c-0.9,1.9-1.9,3.9-3,5.9c-1.1,2-2.1,4-3,6c-1,2-1.6,3.8-2,5.4c-0.1,0.4,0,0.7,0.2,0.7c0.5,0.1,1-0.1,1.4-0.4c0.5-0.4,0.9-0.7,1.2-1
		c0.3-0.3,0.6-0.7,0.8-1.1c0.3-0.4,0.4-0.8,0.5-1.3c0.1-0.4,0.3-0.7,0.6-0.8c0.2-0.1,0.4-0.2,0.6-0.1c0.2,0.1,0.3,0.3,0.4,0.6
		c0.1,0.3,0.1,0.6-0.1,1c-0.4,1.4-1.2,2.6-2.4,3.6c-1.2,1-2.6,1.6-4.1,1.8c-0.5,0-1.1,0-1.6-0.2c-0.6-0.2-1-0.4-1.4-0.9
		c-0.7-0.7-1.2-1.7-1.3-3c-0.2-1.3,0.2-2.8,1.1-4.7c0.8-1.7,1.8-3.7,3-5.9c1.1-2.2,2.2-4.4,3.1-6.7c0.9-2.3,1.7-4.4,2.2-6.4
		s0.6-3.8,0.2-5.2v-0.1h0.1C-63.4,383.4-62.9,383.6-62.2,383.9z"/>
	<path class="st0" d="M-52.8,383.9c0.7,0.3,1.4,0.7,2,1.3c0.6,0.6,1.2,1.3,1.6,2.3s0.5,2.1,0.2,3.4c-0.3,1.6-0.9,3.3-1.8,5.2
		c-0.9,1.9-1.9,3.9-3,5.9c-1.1,2-2.1,4-3,6c-1,2-1.6,3.8-2,5.4c-0.1,0.4,0,0.7,0.2,0.7c0.5,0.1,1-0.1,1.4-0.4c0.5-0.4,0.9-0.7,1.2-1
		c0.3-0.3,0.6-0.7,0.8-1.1c0.3-0.4,0.4-0.8,0.5-1.3c0.1-0.4,0.3-0.7,0.6-0.8c0.2-0.1,0.4-0.2,0.6-0.1c0.2,0.1,0.3,0.3,0.4,0.6
		c0.1,0.3,0.1,0.6-0.1,1c-0.4,1.4-1.2,2.6-2.4,3.6c-1.2,1-2.6,1.6-4.1,1.8c-0.5,0-1.1,0-1.6-0.2c-0.6-0.2-1-0.4-1.4-0.9
		c-0.7-0.7-1.2-1.7-1.3-3c-0.2-1.3,0.2-2.8,1.1-4.7c0.8-1.7,1.8-3.7,3-5.9c1.1-2.2,2.2-4.4,3.1-6.7c0.9-2.3,1.7-4.4,2.2-6.4
		s0.6-3.8,0.2-5.2v-0.1h0.1C-54,383.4-53.5,383.6-52.8,383.9z"/>
</g>
</svg>
